<?xml version="1.0" encoding="UTF-8" standalone="no"?>
<!-- Created with Inkscape (http://www.inkscape.org/) -->

<svg
   width="2.1405654in"
   height="1.8380888in"
   viewBox="0 0 0.02378406 0.020423208"
   version="1.1"
   id="svg1"
   inkscape:version="1.3 (0e150ed6c4, 2023-07-21)"
   sodipodi:docname="gembert.svg"
   xmlns:inkscape="http://www.inkscape.org/namespaces/inkscape"
   xmlns:sodipodi="http://sodipodi.sourceforge.net/DTD/sodipodi-0.dtd"
   xmlns="http://www.w3.org/2000/svg"
   xmlns:svg="http://www.w3.org/2000/svg">
  <sodipodi:namedview
     id="namedview1"
     pagecolor="#ffffff"
     bordercolor="#000000"
     borderopacity="0.25"
     inkscape:showpageshadow="2"
     inkscape:pageopacity="0.0"
     inkscape:pagecheckerboard="0"
     inkscape:deskcolor="#d1d1d1"
     inkscape:document-units="mm"
     inkscape:zoom="2.736408"
     inkscape:cx="85.148121"
     inkscape:cy="93.005136"
     inkscape:window-width="1920"
     inkscape:window-height="1011"
     inkscape:window-x="1920"
     inkscape:window-y="32"
     inkscape:window-maximized="1"
     inkscape:current-layer="layer1" />
  <defs
     id="defs1" />
  <g
     inkscape:label="Layer 1"
     inkscape:groupmode="layer"
     id="layer1"
     transform="translate(-0.00683051,-0.00866025)">
    <path
       style="fill:#5b7855;fill-opacity:0.988591;stroke:none;stroke-width:1.82486e-05;stroke-linejoin:bevel;stroke-dasharray:none;stroke-dashoffset:0;stroke-opacity:1"
       d="m 0.02932891,0.02258438 1.0297e-4,6.6534e-4 3.432e-4,6.7413e-4 3.9877e-4,2.5844e-4 -6.494e-5,3.1082e-4 -5.4741e-4,1.8473e-4 -5.2082e-4,-4.138e-5 -5.5208e-4,-4.1827e-4 -5.103e-4,-5.2524e-4 -1.7253e-4,-8.251e-5 4.3608e-4,-1.838e-4 6.8464e-4,-4.5999e-4 z"
       id="path2-2-0-9" />
    <path
       style="fill:#64845e;fill-opacity:0.988591;stroke:none;stroke-width:1.69553e-05;stroke-linejoin:bevel;stroke-dasharray:none;stroke-dashoffset:0;stroke-opacity:1"
       d="m 0.0226129,0.02265576 6.129e-5,6.6845e-4 -1.3894e-4,7.2313e-4 -2.7816e-4,3.2853e-4 1.2378e-4,2.9057e-4 5.0181e-4,7.501e-5 4.2915e-4,-1.4033e-4 3.7165e-4,-5.1378e-4 3.127e-4,-6.1006e-4 1.2686e-4,-1.1356e-4 -4.079e-4,-9.548e-5 -6.7853e-4,-3.1704e-4 z"
       id="path2-2-0-9-1" />
    <ellipse
       style="opacity:1;fill:#788956;fill-opacity:1;stroke:none;stroke-width:0.00004374;stroke-linejoin:bevel;stroke-dasharray:none;stroke-dashoffset:0;stroke-opacity:1"
       id="path1-4-9-8"
       cx="0.026166199"
       cy="0.019729394"
       rx="0.0044483705"
       ry="0.0046168747" />
    <path
       style="fill:#608357;fill-opacity:0.988591;stroke:none;stroke-width:2.84305e-05;stroke-linejoin:bevel;stroke-dasharray:none;stroke-dashoffset:0;stroke-opacity:1"
       d="m 0.02815446,0.02010497 4.6642e-4,0.001083 7.9858e-4,0.0010272 6.7078e-4,3.1532e-4 6.362e-5,5.3914e-4 -6.5655e-4,4.6982e-4 -7.3101e-4,8.372e-5 -9.5829e-4,-5.3774e-4 -9.5367e-4,-7.2899e-4 -2.7586e-4,-8.739e-5 5.0508e-4,-4.356e-4 7.0898e-4,-9.7069e-4 z"
       id="path2-2-0" />
    <ellipse
       style="opacity:1;fill:#8a9a6c;fill-opacity:1;stroke:none;stroke-width:0.00004374;stroke-linejoin:bevel;stroke-dasharray:none;stroke-dashoffset:0;stroke-opacity:1"
       id="path1-4-9"
       cx="0.021603543"
       cy="0.016864343"
       rx="0.0072401646"
       ry="0.0075144223" />
    <path
       style="fill:#6a9161;fill-opacity:0.98859102;stroke:none;stroke-width:0.0000400055;stroke-linejoin:bevel;stroke-dasharray:none;stroke-dashoffset:0;stroke-opacity:1"
       d="m 0.02469681,0.01844317 9.2096e-4,0.0012257 0.0013877,0.0010175 0.0010403,1.3901e-4 2.1517e-4,6.7887e-4 -8.4024e-4,8.8153e-4 -0.0010361,4.0717e-4 -0.0015062,-3.1268e-4 -0.0015434,-5.6456e-4 -4.1816e-4,-1.88e-6 6.2942e-4,-7.7512e-4 8.0137e-4,-0.0015577 z"
       id="path2-2" />
    <ellipse
       style="opacity:1;fill:#96aa76;fill-opacity:1;stroke:none;stroke-width:0.00004374;stroke-linejoin:bevel;stroke-dasharray:none;stroke-dashoffset:0;stroke-opacity:1"
       id="path1"
       cx="0.016247582"
       cy="0.017513089"
       rx="0.0085297311"
       ry="0.0088528376" />
    <path
       style="opacity:1;fill:#6ca160;fill-opacity:0.98859102;stroke:none;stroke-width:0.0000371697;stroke-linejoin:bevel;stroke-dasharray:none;stroke-dashoffset:0;stroke-opacity:1"
       d="m 0.01946484,0.02075064 0.0010178,9.9207e-4 0.001382,6.9925e-4 9.22e-4,-7.423e-5 3.0958e-4,6.0833e-4 -5.6289e-4,0.0010133 -8.1841e-4,5.9733e-4 -0.0013554,6e-7 -0.0014333,-2.3366e-4 -3.6073e-4,8.163e-5 4.0067e-4,-8.6917e-4 4.0573e-4,-0.0016542 z"
       id="path2" />
    <path
       style="fill:#6ea262;fill-opacity:0.988591;stroke:none;stroke-width:3.65685e-05;stroke-linejoin:bevel;stroke-dasharray:none;stroke-dashoffset:0;stroke-opacity:1"
       d="m 0.00746052,0.02486272 3.3548e-4,0.0013573 -9.793e-5,0.0015062 -5.2728e-4,7.2382e-4 3.6395e-4,5.7217e-4 0.00114885,6.125e-5 9.2204e-4,-3.6626e-4 6.8242e-4,-0.0011204 5.2148e-4,-0.0013066 2.5123e-4,-2.5586e-4 -9.4411e-4,-1.2047e-4 -0.0016173,-5.2427e-4 z"
       id="path2-9" />
    <ellipse
       style="opacity:1;fill:#a6b87d;fill-opacity:1;stroke:none;stroke-width:0.00004374;stroke-linejoin:bevel;stroke-dasharray:none;stroke-dashoffset:0;stroke-opacity:1"
       id="path1-4"
       cx="0.013234709"
       cy="0.021997159"
       rx="0.0064041992"
       ry="0.0066467905" />
    <ellipse
       style="opacity:1;fill:#b0c490;fill-opacity:1;stroke:none;stroke-width:4.374e-05;stroke-linejoin:bevel;stroke-dasharray:none;stroke-dashoffset:0;stroke-opacity:1"
       id="path1-4-9-8-6"
       cx="0.014555951"
       cy="0.02428052"
       rx="0.0044483705"
       ry="0.0046168747" />
    <ellipse
       style="opacity:1;fill:#6a7b4e;fill-opacity:1;stroke:none;stroke-width:3.26617e-05;stroke-linejoin:bevel;stroke-dasharray:none;stroke-dashoffset:0;stroke-opacity:1"
       id="path1-4-9-8-6-0"
       cx="0.015906466"
       cy="0.025862679"
       rx="0.0018814271"
       ry="0.0019163922" />
    <ellipse
       style="fill:#482a2a;fill-opacity:1;stroke:none;stroke-width:2.55437e-05;stroke-linejoin:bevel;stroke-dasharray:none;stroke-dashoffset:0;stroke-opacity:1"
       id="path1-4-9-8-6-0-1"
       cx="0.016037351"
       cy="0.025951076"
       rx="0.0014714036"
       ry="0.0014987487" />
  </g>
</svg>
